<svg xmlns="http://www.w3.org/2000/svg" width="22" height="18" viewBox="0 0 22 18"><path fill="#212121" d="M21.33 2.1c-.78.36-1.62.6-2.51.71.9-.55 1.6-1.43 1.92-2.48-.84.51-1.78.89-2.78 1.09A4.27 4.27 0 0 0 14.77 0a4.44 4.44 0 0 0-4.26 5.51A12.32 12.32 0 0 1 1.49.82a4.54 4.54 0 0 0 1.35 5.99 4.17 4.17 0 0 1-1.98-.56v.06a4.47 4.47 0 0 0 3.51 4.4 4.37 4.37 0 0 1-1.98.08 4.39 4.39 0 0 0 4.09 3.11A8.62 8.62 0 0 1 0 15.76a12.21 12.21 0 0 0 6.71 2.02c8.05 0 12.45-6.84 12.45-12.77l-.01-.58a8.95 8.95 0 0 0 2.18-2.33"/></svg>