<svg xmlns="http://www.w3.org/2000/svg" width="14" height="10" viewBox="0 0 14 10"><defs><clipPath id="a"><path fill="#fff" d="M1606.29 338.71l4 4a1 1 0 0 0 1.42 0l6-6a1 1 0 0 0 0-1.42 1 1 0 0 0-1.42 0l-5.29 5.29-3.29-3.29a1 1 0 0 0-1.42 0 1 1 0 0 0 0 1.42z"/></clipPath></defs><path fill="none" stroke="#fff" stroke-miterlimit="50" stroke-width="4" d="M1606.29 338.71l4 4a1 1 0 0 0 1.42 0l6-6a1 1 0 0 0 0-1.42 1 1 0 0 0-1.42 0l-5.29 5.29-3.29-3.29a1 1 0 0 0-1.42 0 1 1 0 0 0 0 1.42z" clip-path="url(&quot;#a&quot;)" transform="translate(-1605 -334)"/></svg>