<svg xmlns="http://www.w3.org/2000/svg" width="64" height="64" viewBox="0 0 64 64"><path d="M54.2 32.8l-11-2.1H43c-.3-.1-.7-.4-.9-.6l-5.7-9c-.5-.6-1.5-1.1-2.4-1.1H18c-.8 0-1.8.5-2.4 1.1L7.9 31.6c-.6.7-.8 1.8-.5 2.7l2.3 6.1c.4.9 1.3 1.6 2.3 1.6h1.1c.5 2.3 2.5 4 4.9 4s4.4-1.7 4.9-4h19.2c.5 2.3 2.5 4 4.9 4s4.4-1.7 4.9-4H53c1 0 2-.8 2.1-1.8l.7-5c.2-1.1-.5-2.2-1.6-2.4zM18 44c-1.7 0-3-1.3-3-3s1.3-3 3-3 3 1.3 3 3-1.3 3-3 3zm29 0c-1.4 0-2.6-1-2.9-2.3v-.2c0-.2-.1-.4-.1-.6s0-.4.1-.6v-.2C44.4 39 45.6 38 47 38s2.6 1 2.9 2.3v.2c0 .2.1.4.1.6s0 .4-.1.6v.2C49.6 43 48.4 44 47 44zm6.2-4.1c0 .1-.1.1-.1.1H52c-.5-2.3-2.5-4-4.9-4s-4.4 1.7-4.9 4H22.9c-.5-2.3-2.5-4-4.9-4s-4.4 1.7-4.9 4H12c-.1 0-.4-.2-.4-.3l-2.3-6.1c-.1-.2 0-.5.1-.7l7.7-10.5c.2-.2.7-.4.9-.4h16c.2 0 .7.2.9.4l4.9 7.6-8.2-1.6c-.5-.1-1.1.2-1.2.8-.1.5.2 1.1.8 1.2l22.7 4.4-.7 5.1zM26.6 28.7a1 1 0 1 0 2 0 1 1 0 1 0-2 0zM54 47H24c-.6 0-1 .4-1 1s.4 1 1 1h30c.6 0 1-.4 1-1s-.4-1-1-1zm-34 0H10c-.6 0-1 .4-1 1s.4 1 1 1h10c.6 0 1-.4 1-1s-.4-1-1-1z"/></svg>