<svg xmlns="http://www.w3.org/2000/svg" width="64" height="64" viewBox="0 0 64 64"><path d="M49 42h3.993c.946 0 1.425-.586 1.235-1.502l-3.371-16.18C50.599 23.082 49.264 22 48 22H16c-1.259 0-2.6 1.088-2.857 2.317l-1.192 5.726a1.06 1.06 0 0 1-.015.083l-.153.722-.045.214-.213 1.002a1 1 0 1 1-1.956-.416l.257-1.212 1.36-6.527C11.636 21.75 13.796 20 16 20h32c2.21 0 4.364 1.745 4.814 3.91l3.372 16.18c.45 2.16-.98 3.91-3.193 3.91H49c-.552 0-1-.444-1-1 0-.552.444-1 1-1zm-8 0H11.007c-.949 0-1.426-.584-1.235-1.502l.486-2.331.196-.921a1 1 0 1 0-1.956-.416l-.053.246h-.002l-.142.679-.215 1.013a1.058 1.058 0 0 0-.016.097l-.256 1.226c-.45 2.164.98 3.909 3.193 3.909H41c.556 0 1-.448 1-1 0-.556-.448-1-1-1zm4 2a1 1 0 1 0 0-2 1 1 0 0 0 0 2zm-21.617-7h-1.817v-7.055H19.24v-1.511h6.469v1.511h-2.326V37zm8.05 0l-.62-2.04h-3.124L27.07 37h-1.96l3.024-8.602h2.22L33.391 37h-1.957zm-1.054-3.563a603.135 603.135 0 0 1-.97-3.134 8.849 8.849 0 0 1-.155-.574c-.129.5-.498 1.736-1.108 3.708h2.233zM41.395 37H39.32l-1.992-3.24L35.336 37H33.39l2.841-4.418-2.66-4.148h2.004l1.846 3.082 1.81-3.082h1.957L38.5 32.682 41.395 37zm1.078 0v-8.566h1.816V37h-1.816z"/></svg>