<svg xmlns="http://www.w3.org/2000/svg" width="22" height="22" viewBox="0 0 22 22"><path fill="#212121" d="M6.27.06a8.12 8.12 0 0 0-2.59.5c-.7.27-1.3.64-1.89 1.23A5.22 5.22 0 0 0 .56 3.68a8.12 8.12 0 0 0-.5 2.59 79.4 79.4 0 0 0-.06 4.4c0 2.89.01 3.26.06 4.39.06 1.14.24 1.92.5 2.59.27.71.64 1.3 1.23 1.89.59.6 1.19.96 1.89 1.23a7.6 7.6 0 0 0 2.59.5c1.14.05 1.5.06 4.4.06 2.89 0 3.26-.01 4.39-.06a7.55 7.55 0 0 0 2.59-.5c.71-.27 1.3-.63 1.89-1.23.6-.59.96-1.18 1.23-1.89.27-.67.45-1.45.5-2.59.05-1.13.06-1.5.06-4.39 0-2.9-.01-3.26-.06-4.4a7.6 7.6 0 0 0-.5-2.59 5.1 5.1 0 0 0-1.23-1.89A5.14 5.14 0 0 0 17.65.56a8.06 8.06 0 0 0-2.59-.5C13.93.01 13.56 0 10.67 0c-2.9 0-3.26.01-4.4.06zm8.71 1.92c1.04.05 1.6.23 1.98.37.5.19.85.43 1.22.8.38.37.61.73.8 1.23.15.37.32.94.37 1.98.05 1.12.06 1.46.06 4.31 0 2.84-.01 3.18-.06 4.31a5.87 5.87 0 0 1-.37 1.98c-.19.5-.42.85-.8 1.22-.37.38-.72.61-1.22.8-.38.15-.94.32-1.98.37-1.13.05-1.47.06-4.31.06-2.85 0-3.19-.01-4.31-.06a5.8 5.8 0 0 1-1.98-.37c-.5-.19-.86-.42-1.23-.8a3.24 3.24 0 0 1-.8-1.22 6.14 6.14 0 0 1-.37-1.98 76.52 76.52 0 0 1-.06-4.31c0-2.85.01-3.19.06-4.31.05-1.04.23-1.61.37-1.98.19-.5.43-.86.8-1.23.37-.37.73-.61 1.23-.8.37-.14.94-.32 1.98-.37 1.12-.05 1.46-.06 4.31-.06 2.84 0 3.18.01 4.31.06zm-9.79 8.69a5.47 5.47 0 1 0 10.95 0 5.47 5.47 0 0 0-10.95 0zm1.92 0a3.56 3.56 0 1 1 7.11-.01 3.56 3.56 0 0 1-7.11.01zm9.25-4.42a1.28 1.28 0 1 1 0-2.56 1.28 1.28 0 0 1 0 2.56z"/></svg>