<svg xmlns="http://www.w3.org/2000/svg" width="64" height="64" viewBox="0 0 64 64"><path d="M25.293 19.007a1 1 0 1 0 1.414-1.414 1 1 0 1 0-1.414 1.414zM48.8 42.5c-.2-.5-.8-.8-1.3-.6-.5.2-.8.8-.6 1.3l2 5.6c.2.5 0 1.1-.3 1.4L46.8 52c-.3.3-.8.3-1-.1l-11.4-18L24.2 44l1.6 3.6c.1.5 0 1.1-.3 1.4l-.6.6c-.3.3-.9.3-1.2 0l-8.5-8.5c-.3-.3-.3-.9 0-1.2l.6-.6c.3-.3 1-.5 1.4-.3l3.5 1.7 10.1-10.1L12.9 19c-.4-.2-.5-.7-.1-1l1.8-1.8c.3-.3 1-.5 1.4-.3l5.4 1.9c.5.2 1.1-.1 1.3-.6.2-.5 0-1-.5-1.2H22l-5.4-2.1c-1.2-.4-2.6-.1-3.5.8l-1.8 1.8c-1.3 1.3-1 3.2.5 4.1l16.1 9.9-7.6 7.6-2.3-1-.2-.1c-1.2-.4-2.6-.1-3.5.8l-.6.6c-1.1 1.1-1.1 2.9 0 4l8.5 8.5c1.1 1.1 2.9 1.1 4 0l.6-.6c.9-.9 1.2-2.3.8-3.5l-.1-.2-1.1-2.3 7.6-7.6 9.8 16.1c.9 1.5 2.9 1.7 4.1.5l1.8-1.8c.9-.9 1.2-2.3.8-3.5l-1.7-5.5zm-3.007-2.993a1 1 0 1 0 1.414-1.414 1 1 0 1 0-1.414 1.414zM53 11.7c-2.2-2.2-4.7-1.5-7 .7l-8.8 8.8-7.1-2.5c-.5-.2-1.1.1-1.3.6-.2.5 0 1 .5 1.2l8.4 3 9.7-9.7c1.3-1.3 2.8-2.1 4.2-.7 1.3 1.3.6 2.8-.7 4.2L41.2 27l2.9 8.2c0 .1 0 .1.1.1v.1c.2.4.7.6 1.2.4.5-.2.8-.8.6-1.3l-2.5-7 8.8-8.8c2.3-2.3 2.9-4.9.7-7z"/></svg>