<svg xmlns="http://www.w3.org/2000/svg" width="22" height="22" viewBox="0 0 22 22"><path fill="#212121" d="M20.95 10.78A10.1 10.1 0 0 0 9.04.89 5.99 5.99 0 0 0 5.9 0C2.64 0 0 2.6 0 5.82 0 6.89.3 7.9.81 8.76a10.1 10.1 0 0 0 11.83 11.88c.84.44 1.78.69 2.79.69a5.85 5.85 0 0 0 5.29-8.4c.15-.69.23-1.41.23-2.15zm-7.12 6.43c-.89.38-1.95.57-3.16.57a7.64 7.64 0 0 1-3.62-.77 4.61 4.61 0 0 1-1.66-1.5 3.25 3.25 0 0 1-.65-1.84c0-.38.14-.7.42-.97.28-.26.63-.4 1.06-.4.34 0 .64.11.89.32.23.2.43.49.59.87.18.42.37.77.58 1.04.2.27.48.49.85.67.37.17.86.26 1.47.26.83 0 1.52-.18 2.03-.53.51-.35.75-.77.75-1.28 0-.4-.13-.72-.39-.97a2.74 2.74 0 0 0-1.08-.6c-.46-.15-1.08-.3-1.85-.47a13.8 13.8 0 0 1-2.65-.8 4.35 4.35 0 0 1-1.74-1.28 3.24 3.24 0 0 1-.65-2.05c0-.78.23-1.47.68-2.07a4.26 4.26 0 0 1 1.97-1.38 8.32 8.32 0 0 1 2.96-.47c.91 0 1.7.1 2.36.31.67.21 1.23.49 1.67.84.45.35.78.73.98 1.12.21.39.32.79.32 1.17 0 .36-.14.69-.41.98a1.4 1.4 0 0 1-1.04.44c-.38 0-.67-.09-.87-.27a3.4 3.4 0 0 1-.61-.82 3.36 3.36 0 0 0-.9-1.13c-.34-.26-.91-.39-1.69-.39a3.1 3.1 0 0 0-1.75.43c-.42.28-.63.6-.63.98 0 .24.07.43.2.6.14.18.35.33.6.46.27.14.54.24.82.32.28.08.75.2 1.4.35.82.17 1.57.37 2.23.59.68.22 1.26.48 1.73.8.49.32.87.73 1.14 1.21.27.5.41 1.1.41 1.81a3.9 3.9 0 0 1-.71 2.28 4.48 4.48 0 0 1-2.05 1.57z"/></svg>